<svg xmlns="http://www.w3.org/2000/svg" version="1.1" xmlns:xlink="http://www.w3.org/1999/xlink" xmlns:svgjs="http://svgjs.dev/svgjs" width="1000" height="1000" viewBox="0 0 1000 1000"><rect width="1000" height="1000" fill="#000000"></rect><g transform="matrix(0.7,0,0,0.7,149.5757744558304,308.952223204809)"><svg viewBox="0 0 396 216" data-background-color="#000000" preserveAspectRatio="xMidYMid meet" height="545" width="1000" xmlns="http://www.w3.org/2000/svg" xmlns:xlink="http://www.w3.org/1999/xlink"><g id="tight-bounds" transform="matrix(1,0,0,1,0.23999047264396722,0.16859887483300895)"><svg viewBox="0 0 395.52 215.66280404060274" height="215.66280404060274" width="395.52"><g><svg viewBox="0 0 395.52 215.66280404060274" height="215.66280404060274" width="395.52"><g transform="matrix(1,0,0,1,0,131.8287602993277)"><svg viewBox="0 0 395.52 83.83404374127501" height="83.83404374127501" width="395.52"><g id="textblocktransform"><svg viewBox="0 0 395.52 83.83404374127501" height="83.83404374127501" width="395.52" id="textblock"><g><svg viewBox="0 0 395.52 83.83404374127501" height="83.83404374127501" width="395.52"><g transform="matrix(1,0,0,1,0,0)"><svg width="395.52" viewBox="0.800000011920929 -45.150001525878906 214.87998962402344 45.55000305175781" height="83.83404374127501" data-palette-color="#ffffff"><path d="M9.3 0.4Q5.85 0.4 4.55-1.05 3.25-2.5 3.25-5.7L3.25-5.7 3.25-28.55 0.8-28.55 0.8-35.2 3.25-35.2 3.25-42.95 11.75-42.95 11.75-35.2 14.25-35.2 14.25-28.55 11.75-28.55 11.75-8Q11.75-7.05 11.9-6.6 12.05-6.15 12.7-6.15L12.7-6.15Q13.2-6.15 13.65-6.2 14.1-6.25 14.25-6.25L14.25-6.25 14.25-0.25Q13.5-0.05 12.08 0.18 10.65 0.4 9.3 0.4L9.3 0.4ZM27.25 0.4Q21.6 0.4 19.15-2.7 16.7-5.8 16.7-11.95L16.7-11.95 16.7-26.65Q16.7-31.7 19.6-34.35 22.5-37 27.7-37L27.7-37Q38.25-37 38.25-26.65L38.25-26.65 38.25-24Q38.25-20 38.15-17.5L38.15-17.5 25.45-17.5 25.45-10.4Q25.45-8.5 25.85-7.43 26.25-6.35 27.55-6.35L27.55-6.35Q28.55-6.35 28.97-6.95 29.4-7.55 29.47-8.33 29.55-9.1 29.55-10.6L29.55-10.6 29.55-14.15 38.25-14.15 38.25-12.05Q38.25-5.65 35.77-2.63 33.3 0.4 27.25 0.4L27.25 0.4ZM25.4-21.85L29.55-21.85 29.55-26.55Q29.55-30.5 27.6-30.5L27.6-30.5Q25.4-30.5 25.4-26.55L25.4-26.55 25.4-21.85ZM52.4 0.4Q46.4 0.4 43.75-2.65 41.1-5.7 41.1-12L41.1-12 41.1-23.3Q41.1-28.05 42.12-31.03 43.15-34 45.57-35.5 48-37 52.3-37L52.3-37Q57-37 59.95-34.55 62.9-32.1 62.9-27.7L62.9-27.7 62.9-22.1 54-22.1 54-27.25Q54-28.7 53.6-29.48 53.2-30.25 52.05-30.25L52.05-30.25Q49.9-30.25 49.9-27.2L49.9-27.2 49.9-9.45Q49.9-8.2 50.42-7.33 50.95-6.45 52-6.45L52-6.45Q53.05-6.45 53.57-7.3 54.1-8.15 54.05-9.5L54.05-9.5 54-15.65 62.9-15.65 62.9-9.25Q62.9-4.75 59.97-2.18 57.05 0.4 52.4 0.4L52.4 0.4ZM65.94 0L65.94-43.2 74.94-43.2 74.94-33Q76.34-37 80.29-37L80.29-37Q83.99-37 85.89-34.65 87.79-32.3 87.79-28.2L87.79-28.2 87.79 0 79.04 0 79.04-27.65Q79.04-28.85 78.49-29.6 77.94-30.35 76.89-30.35L76.89-30.35Q75.99-30.35 75.47-29.58 74.94-28.8 74.94-27.7L74.94-27.7 74.94 0 65.94 0ZM110.44 0.4Q106.99 0.4 105.69-1.05 104.39-2.5 104.39-5.7L104.39-5.7 104.39-28.55 101.94-28.55 101.94-35.2 104.39-35.2 104.39-42.95 112.89-42.95 112.89-35.2 115.39-35.2 115.39-28.55 112.89-28.55 112.89-8Q112.89-7.05 113.04-6.6 113.19-6.15 113.84-6.15L113.84-6.15Q114.34-6.15 114.79-6.2 115.24-6.25 115.39-6.25L115.39-6.25 115.39-0.25Q114.64-0.05 113.21 0.18 111.79 0.4 110.44 0.4L110.44 0.4ZM126.84-39.05L118.09-39.05 118.09-45.15 126.84-45.15 126.84-39.05ZM126.84 0L118.09 0 118.09-36.6 126.84-36.6 126.84 0ZM137.83 0.4Q134.38 0.4 133.08-1.05 131.78-2.5 131.78-5.7L131.78-5.7 131.78-28.55 129.33-28.55 129.33-35.2 131.78-35.2 131.78-42.95 140.28-42.95 140.28-35.2 142.78-35.2 142.78-28.55 140.28-28.55 140.28-8Q140.28-7.05 140.43-6.6 140.58-6.15 141.23-6.15L141.23-6.15Q141.73-6.15 142.18-6.2 142.63-6.25 142.78-6.25L142.78-6.25 142.78-0.25Q142.03-0.05 140.61 0.18 139.18 0.4 137.83 0.4L137.83 0.4ZM152.18 0.4Q147.93 0.4 146.36-2.43 144.78-5.25 144.78-10.5L144.78-10.5Q144.78-14.8 145.91-17.1 147.03-19.4 149.03-20.48 151.03-21.55 155.13-22.85L155.13-22.85 157.53-23.65 157.53-23.75 157.53-27.4Q157.53-28.85 156.96-29.63 156.38-30.4 155.58-30.4L155.58-30.4Q154.88-30.4 154.36-29.75 153.83-29.1 153.83-28L153.83-28 153.83-25.8 145.33-25.8 145.33-27Q145.33-32.4 147.86-34.7 150.38-37 156.08-37L156.08-37Q160.63-37 163.48-34.63 166.33-32.25 166.33-27.9L166.33-27.9 166.33 0 157.63 0 157.63-4.35Q156.98-2.1 155.56-0.85 154.13 0.4 152.18 0.4L152.18 0.4ZM155.63-6.4Q156.63-6.4 157.06-7.23 157.48-8.05 157.48-9.25L157.48-9.25 157.48-19.45Q155.53-18.7 154.61-17.55 153.68-16.4 153.68-14.35L153.68-14.35 153.68-9.65Q153.68-6.4 155.63-6.4L155.63-6.4ZM169.68 0L169.68-36.6 178.43-36.6 178.43-31.95Q178.98-34.2 180.33-35.6 181.68-37 183.93-37L183.93-37Q187.63-37 189.4-34.73 191.18-32.45 191.18-28.25L191.18-28.25 191.18 0 182.58 0 182.58-27.35Q182.58-28.55 182.1-29.4 181.63-30.25 180.63-30.25L180.63-30.25Q179.28-30.25 178.85-29.03 178.43-27.8 178.43-25.75L178.43-25.75 178.43 0 169.68 0ZM204.68 0.4Q193.83 0.4 193.83-10.6L193.83-10.6 193.88-13.5 202.63-13.5 202.68-9.2Q202.68-7.9 203.18-7.23 203.68-6.55 204.83-6.55L204.83-6.55Q206.58-6.55 206.58-9.4L206.58-9.4Q206.58-11.5 205.75-12.7 204.93-13.9 203.13-15.25L203.13-15.25 198.48-18.85Q196.08-20.7 195.03-22.68 193.98-24.65 193.98-28.25L193.98-28.25Q193.98-31.05 195.45-33.02 196.93-35 199.38-36 201.83-37 204.83-37L204.83-37Q215.48-37 215.48-26.4L215.48-26.4 215.48-25.7 206.43-25.7 206.43-27.1Q206.43-28.4 206-29.33 205.58-30.25 204.58-30.25L204.58-30.25Q203.68-30.25 203.2-29.73 202.73-29.2 202.73-28.3L202.73-28.3Q202.73-26.3 204.28-25.2L204.28-25.2 209.68-21.25Q212.58-19.1 214.13-16.57 215.68-14.05 215.68-10.2L215.68-10.2Q215.68-5.1 212.78-2.35 209.88 0.4 204.68 0.4L204.68 0.4Z" opacity="1" transform="matrix(1,0,0,1,0,0)" fill="#ffffff" class="undefined-text-0" data-fill-palette-color="primary" id="text-0"></path></svg></g></svg></g></svg></g></svg></g><g transform="matrix(1,0,0,1,75.54432000000001,0)"><svg viewBox="0 0 244.43135999999996 112.03755458906248" height="112.03755458906248" width="244.43135999999996"><g><svg xmlns="http://www.w3.org/2000/svg" xmlns:xlink="http://www.w3.org/1999/xlink" version="1.1" x="0" y="0" viewBox="0 54.16400146484375 200 91.6719970703125" enable-background="new 0 0 200 200" xml:space="preserve" height="112.03755458906248" width="244.43135999999996" class="icon-icon-0" data-fill-palette-color="accent" id="icon-0"><g fill="#ffffff" data-fill-palette-color="accent"><path fill="#ffffff" d="M98.522 128.273c-15.587 0-28.27-12.683-28.27-28.273 0-15.59 12.682-28.274 28.27-28.274 15.588 0 28.27 12.684 28.27 28.274C126.792 115.591 114.11 128.273 98.522 128.273zM98.522 77.638c-12.329 0-22.358 10.032-22.358 22.362 0 12.331 10.029 22.362 22.358 22.362 12.33 0 22.359-10.031 22.359-22.362C120.881 87.669 110.852 77.638 98.522 77.638z" data-fill-palette-color="accent"></path><g fill="#ffffff" data-fill-palette-color="accent"><path fill="#ffffff" d="M164.904 124.982c-8.195 0-14.862-6.667-14.862-14.86 0-3.828 1.439-7.409 3.975-10.122-2.535-2.713-3.975-6.295-3.975-10.124 0-8.192 6.667-14.858 14.862-14.858 6.966 0 12.828 4.814 14.431 11.289 1.813-0.767 3.776-1.17 5.804-1.17C193.333 85.137 200 91.804 200 100s-6.667 14.863-14.861 14.863c-2.027 0-3.992-0.403-5.804-1.169C177.731 120.169 171.868 124.982 164.904 124.982zM164.904 80.929c-4.936 0-8.95 4.014-8.95 8.947 0 3.116 1.585 5.962 4.243 7.613v5.021c-2.658 1.65-4.243 4.496-4.243 7.611 0 4.935 4.015 8.948 8.95 8.948 4.938 0 8.953-4.014 8.953-8.948 0-0.41-0.034-0.847-0.101-1.301l5.02-2.518c1.696 1.708 3.955 2.648 6.362 2.648 4.936 0 8.95-4.016 8.95-8.952s-4.015-8.952-8.95-8.952c-2.404 0-4.665 0.94-6.363 2.649l-5.019-2.522c0.066-0.448 0.101-0.885 0.101-1.299C173.857 84.943 169.842 80.929 164.904 80.929z" data-fill-palette-color="accent"></path><rect y="97.044" fill="#ffffff" width="158.638" height="5.912" data-fill-palette-color="accent"></rect><g fill="#ffffff" data-fill-palette-color="accent"><polygon fill="#ffffff" points="10.297,100 4.385,100 4.385,86.604 0,86.604 0,80.693 10.297,80.693    " data-fill-palette-color="accent"></polygon><polygon fill="#ffffff" points="39.664,100 33.753,100 33.753,80.693 44.046,80.693 44.046,86.604 39.664,86.604    " data-fill-palette-color="accent"></polygon><rect x="19.069" y="83.649" fill="#ffffff" width="5.912" height="16.351" data-fill-palette-color="accent"></rect></g></g><g fill="#ffffff" data-fill-palette-color="accent"><rect x="95.566" y="54.164" fill="#ffffff" width="5.911" height="9.578" data-fill-palette-color="accent"></rect><rect x="81.05" y="58.006" transform="matrix(0.3091 0.951 -0.951 0.3091 117.2858 -39.5171)" fill="#ffffff" width="9.58" height="5.911" data-fill-palette-color="accent"></rect><rect x="69.602" y="63.835" transform="matrix(0.5873 0.8094 -0.8094 0.5873 84.756 -32.6467)" fill="#ffffff" width="9.58" height="5.91" data-fill-palette-color="accent"></rect><rect x="60.525" y="72.914" transform="matrix(0.8089 0.5879 -0.5879 0.8089 57.0846 -23.9012)" fill="#ffffff" width="9.575" height="5.912" data-fill-palette-color="accent"></rect><rect x="54.691" y="84.357" transform="matrix(0.9509 0.3095 -0.3095 0.9509 29.948 -14.1236)" fill="#ffffff" width="9.581" height="5.912" data-fill-palette-color="accent"></rect><rect x="56.526" y="107.892" transform="matrix(0.3091 0.951 -0.951 0.3091 148.2574 21.2817)" fill="#ffffff" width="5.911" height="9.582" data-fill-palette-color="accent"></rect><rect x="62.354" y="119.341" transform="matrix(0.5873 0.8093 -0.8093 0.5873 127.4114 -1.6365)" fill="#ffffff" width="5.912" height="9.573" data-fill-palette-color="accent"></rect><rect x="71.435" y="128.417" transform="matrix(0.8093 0.5874 -0.5874 0.8093 92.4266 -18.2941)" fill="#ffffff" width="5.909" height="9.583" data-fill-palette-color="accent"></rect><rect x="82.882" y="134.248" transform="matrix(0.9511 0.309 -0.309 0.9511 47.1571 -19.7175)" fill="#ffffff" width="5.911" height="9.585" data-fill-palette-color="accent"></rect><rect x="95.565" y="136.256" fill="#ffffff" width="5.912" height="9.58" data-fill-palette-color="accent"></rect><rect x="106.411" y="136.085" transform="matrix(0.3088 0.9511 -0.9511 0.3088 209.1149 -9.6588)" fill="#ffffff" width="9.583" height="5.912" data-fill-palette-color="accent"></rect><rect x="117.86" y="130.253" transform="matrix(0.5871 0.8095 -0.8095 0.5871 158.4756 -44.2857)" fill="#ffffff" width="9.581" height="5.912" data-fill-palette-color="accent"></rect><rect x="126.942" y="121.175" transform="matrix(0.8089 0.588 -0.588 0.8089 98.157 -53.7285)" fill="#ffffff" width="9.574" height="5.911" data-fill-palette-color="accent"></rect><rect x="132.769" y="109.73" transform="matrix(0.9508 0.3098 -0.3098 0.9508 41.6732 -37.0693)" fill="#ffffff" width="9.584" height="5.913" data-fill-palette-color="accent"></rect><rect x="108.249" y="56.172" transform="matrix(0.951 0.3091 -0.3091 0.951 24.2848 -31.384)" fill="#ffffff" width="5.91" height="9.58" data-fill-palette-color="accent"></rect><rect x="119.697" y="61.999" transform="matrix(0.8094 0.5873 -0.5873 0.8094 62.6096 -59.3028)" fill="#ffffff" width="5.911" height="9.581" data-fill-palette-color="accent"></rect><rect x="128.776" y="71.083" transform="matrix(0.5878 0.809 -0.809 0.5878 115.6868 -75.2992)" fill="#ffffff" width="5.912" height="9.575" data-fill-palette-color="accent"></rect><rect x="134.607" y="82.525" transform="matrix(0.3094 0.9509 -0.9509 0.3094 178.0305 -70.5129)" fill="#ffffff" width="5.912" height="9.581" data-fill-palette-color="accent"></rect></g></g></svg></g></svg></g><g></g></svg></g><defs></defs></svg><rect width="395.52" height="215.66280404060274" fill="none" stroke="none" visibility="hidden"></rect></g></svg></g></svg>